<svg viewBox="0 0 43.5 55" width="43.5" height="55" xmlns="http://www.w3.org/2000/svg"><path d="M1.4 3.5l20.4-2.1 20.3 2.1V41L21.8 53 1.4 41V3.5z" fill="none" stroke="#fff" stroke-width="2.791"/><path d="M1.7 20.9L21.1 9.6 42 20.9v1.2L21.8 34 1.7 22.1v-1.2z" fill="none" stroke="#fff" stroke-width="2.057"/><path d="M21.8 32.8l2.9-1.9-2.9-1.9v-1.9l4.7 2.8L28 29l-6.2-3.7v-2.2l7.9 4.8 1.6-.9-9.5-5.9V19l12.9 7.9v8.4l-12.9 7.8-13.1-7.6v-2.2l13.1 7.9v-2.1L8.7 31.4v-1.9l13.1 7.6v-4.3z" fill="#fff"/></svg>