<svg width="273" height="276" viewBox="0 0 273 276" fill="none" xmlns="http://www.w3.org/2000/svg"><path d="M212.38 230.955l3.998-2.149s-5.66-23.45-13.839-40.66c-2.493-5.286-9.974-13.725-13.165-19.16-7.289-12.297-12.742-30.088-12.742-30.088l-92.39 3.079s-5.876 17.342-12.525 30.005c-2.934 5.584-9.974 14.388-12.168 19.79-7.29 17.642-11.81 37.756-11.81 37.756l2.726 1.46 161.915-.033z" fill="#EB532A"/><path d="M194.698 82.883c-.3 15.767-2.394 32.155-10.656 45.905-3.648 6.158-5.144 10.788-10.954 15.186-4.912 3.527-15.867 1.436-23.771 7.891 0 0-10.954 9.319-20.413 8.788-9.142-.597-18.285-8.19-18.285-8.19-4.555-4.365-15.51-5.261-22.275-7.593-6.45-2.39-15.974-19.003-19.74-27.384a25.129 25.129 0 01-1.57-4.149l-1.122-4.265-1.03-3.925c-2.76-6.398-3.326-13.451-6.708-19.849-2.394-4.149-4.256-7.593-5.153-11.418-1.854-8.788-3.948-17.866-5.502-26.596-2.76-13.152-8.204-34.486.598-45.64 0 0 9.974-2.273 27.719 16.373 8.56 7.593 17.063 21.94 27.718 26.006a51.045 51.045 0 005.818-7.294c2.394 2.033 6.999 4.664 10.656 4.15 2.393 0 4.247-2.332 6.109-2.332 1.496 0 3.947 1.435 4.546 1.435 6.408 2.63 6.109-2.93 9.758-2.63 3.657 0 3.657 6.995 11.552 2.63l3.957-.299c10.057-10.522 30.112-37.416 47.234-33.59 15.21 3.767-2.751 62.584-7.905 76.865" fill="#EB532A"/><path d="M129.703 162.206h-.889c-9.558-.622-18.767-8.215-19.116-8.539l-.075-.074c-2.76-2.639-8.445-3.942-13.947-5.203a79.004 79.004 0 01-7.763-2.042c-8.702-3.236-21.31-27.873-22.324-32.686l-2.12-8.041a66.28 66.28 0 01-2.842-8.879 52.005 52.005 0 00-3.765-10.787c-2.303-3.959-4.306-7.618-5.286-11.784a1150.8 1150.8 0 00-1.571-7.319c-1.388-6.389-2.818-13.003-3.957-19.359-.182-.896-.398-1.884-.614-2.913-2.826-13.152-7.09-33.026 1.52-43.913l.341-.423.524-.125c.44-.1 10.988-2.24 29.09 16.77a103.594 103.594 0 019.142 9.768c5.386 6.273 10.947 12.737 17.147 15.517a46.157 46.157 0 004.895-6.265l.931-1.535 1.372 1.161c2.086 1.768 6.325 4.24 9.442 3.776h.224a5.753 5.753 0 002.66-1.062 6.93 6.93 0 013.449-1.27c1.314.122 2.594.488 3.773 1.08.308.124.707.298.898.356h.183l.274.116c2.926 1.203 3.732.415 4.987-.772.922-.896 2.177-2.116 4.289-1.975 1.92 0 3.116 1.287 4.081 2.307 1.512 1.602 2.609 2.755 6.649.515l.291-.158 3.698-.282c1.463-1.552 3.109-3.41 4.987-5.535 11.137-12.538 27.968-31.483 43.286-28.072a7.761 7.761 0 015.037 4.149c8.644 16.131-11.636 74.16-11.836 74.74l-.515-.182c-.549 26.189-6.458 39.001-10.863 46.295-.831 1.394-1.546 2.714-2.236 3.992-2.352 4.331-4.38 8.074-9.142 11.617-2.394 1.718-5.652 2.224-9.426 2.813-4.704.73-10.04 1.56-14.295 5.037-.424.398-10.872 9.186-20.588 9.186zm-18.036-10.895c.615.506 9.076 7.269 17.338 7.808 8.702.456 19.216-8.298 19.316-8.423 4.929-4.024 10.954-4.978 15.792-5.717 3.391-.523 6.308-.979 8.078-2.249 4.156-3.136 5.968-6.439 8.237-10.63.706-1.294 1.438-2.638 2.294-4.091 6.849-11.393 10.065-25.317 10.439-45.158h1.995l-1.305-.464c6.391-17.734 18.285-60.577 12.018-72.26a4.737 4.737 0 00-3.033-2.606c-13.515-3.02-29.622 15.12-40.278 27.127-1.994 2.24-3.881 4.364-5.477 6.04l-.407.424-4.214.315c-5.926 3.145-8.428.506-10.09-1.253-.831-.83-1.305-1.344-1.912-1.344h-.124c-.69-.058-1.064.24-1.954 1.104-1.363 1.327-3.416 3.319-8.07 1.493a9.14 9.14 0 01-1.579-.564 9.56 9.56 0 00-2.577-.83 5.09 5.09 0 00-1.886.83 8.472 8.472 0 01-4.106 1.485c-3.674.498-7.796-1.593-10.398-3.427a56.636 56.636 0 01-5.078 6.132l-.707.722-.989-.323c-7.314-2.797-13.423-9.9-19.332-16.779a100.943 100.943 0 00-8.86-9.51l-.092-.09C65.921 9.86 59.214 6.018 55.133 4.417a15.813 15.813 0 00-6.167-1.287C41.768 13.023 45.758 31.62 48.417 44c.216 1.03.432 2.017.632 2.971 1.13 6.348 2.56 12.929 3.931 19.293.532 2.448 1.064 4.888 1.571 7.303.873 3.717 2.776 7.17 4.987 10.962a54.306 54.306 0 014.04 11.442 61.814 61.814 0 002.75 8.572l.067.216 2.178 8.298c.83 4.091 13.115 27.757 20.346 30.429a73.304 73.304 0 007.406 1.942c5.834 1.262 11.96 2.68 15.342 5.884z" fill="#0F112E"/><path d="M173.388 85.517a7.735 7.735 0 00-2.25-3.66 7.76 7.76 0 00-3.859-1.9c-2.393-.597-4.903 0-7.006-.298.299-2.033 1.862-8.49-2.751-7.892-2.394 0-4.912 6.995-6.408 8.788-2.394 3.527-3.948 2.63-4.247-1.436-.599-4.149 1.496-9.684-1.854-10.522-2.402-.299-4.255 4.365-5.153 7.294-.299 1.436-1.854 2.63-1.255-7.593 0-2.63 0-9.684-1.496-9.916h-.599c-4.255.299-7.305 16.671-8.56 21.335-.898-4.664-5.818-24.563-9.459-20.198-.906 2.622-.299 3.759-.598 6.39 0 1.435-.308 11.418-1.505 9.683-.598-2.929-3.948-8.787-5.818-7.891-3.324 2.93-.598 6.995-1.496 11.12-.598 4.149-2.161 4.978-4.255 1.195-1.255-1.793-3.325-8.788-5.818-9.129-4.247-.597-3.05 5.859-3.05 7.892-2.153 0-4.547-.597-7.007-.299a8.317 8.317 0 00-6.4 5.261c-.299.598 0 22.48 20.114 22.837a20.812 20.812 0 008.561-1.377c1.853-.598 3.324-2.033 4.912-.896l20.712 1.435c1.496-1.195 3.05-2.033 4.546-1.435 2.76 1.194 6.708 3.228 10.065 3.228 10.356 0 19.516-4.15 22.508-13.452.956-.357-.299-7.95-.599-8.547l.025-.017z" fill="#ECA45B"/><path d="M88.795 88.743s12.808-1.195 16.166.597c6.699 3.228 7.597 10.522 7.597 9.684 0 0-3.948 1.436-5.145 1.436a58.05 58.05 0 01-6.408.597c-10.356-1.195-12.21-12.314-12.21-12.314zM169.141 90.476s-12.467-1.792-16.166-.299c-7.006 2.93-8.203 10.223-8.203 9.327 0 0 3.948 1.427 4.904 1.792 2.077.626 4.238.928 6.408.896 10.597-.597 13.057-11.716 13.057-11.716z" fill="#fff"/><path d="M145.377 99.266c.897.299 3.948 1.436 4.912 1.793 1.789.526 3.638.827 5.502.896h.598c9.143-.298 12.218-9.686 12.468-11.122a70.526 70.526 0 00-10.664-.897 16.646 16.646 0 00-4.904.598 13.666 13.666 0 00-7.912 8.732z" fill="#fff"/><path d="M118.251 120.001c-.898-4.663.299-9.318 1.255-14.04 0 0 3.05-9.958 7.904-10.788 12.467-2.332 13.706 25.16 13.706 25.16-14.662 6.456-22.865-.298-22.865-.298v-.034z" fill="#F3773F"/><path d="M162.135 123.53c-.898-2.033-4.555-3.767-7.306-4.149-5.818-.597-25.566 3.767-25.566 3.767l-.058.183c-2.577-.722-20.238-5.444-25.566-4.904-2.751.298-6.707 1.792-7.605 3.767-1.496 2.929.3 6.754 1.862 9.957 1.853 3.527 6.1 8.779 10.356 11.41a9.986 9.986 0 005.502 1.8c15.21.299 16.166-8.729 16.166-8.43l.241-1.552.058.058c.598 0-1.255 9.319 13.714 9.319 1.853 0 3.649.605 5.51-.299 4.248-2.622 8.802-7.584 10.656-11.111 1.438-3.053 3.59-6.58 2.036-9.808v-.008z" fill="#ECA45B"/><path d="M117.953 120.601c.598-1.792 12.209.299 12.209.299s10.057-2.332 11.553.298c.299.598-1.255 2.631-1.255 2.631s-4.247-.299-5.145.597c-1.263 1.195-1.862 6.754-1.496 6.754.366 0-2.161 2.929-3.325 2.929-.897 0-3.648-2.032-3.324-2.331.324-.299-.299-6.157-1.854-7.285-.906-.897-4.255.298-5.51-.299-.598-.963-1.795-3.593-1.795-3.593h-.058z" fill="#CE4A28"/><path d="M105.261 88.143c-1.505-.597-3.957-.896-8.204-.896-4.247 0-8.261.299-8.56.299h-1.198v1.194s2.394 11.957 13.407 13.135c2.339.02 4.678-.08 7.006-.298.898-.299 5.818-1.436 5.818-1.436s-.008-9.052-8.269-11.998zm1.853 10.787c-1.496.597-4.555.597-5.818.597a11.342 11.342 0 01-5.32-1.764 11.317 11.317 0 01-3.823-4.094A13.629 13.629 0 0190.3 89.52c1.554 0 3.948-.298 7.007-.597.772 0 1.37 0 2.028.058-.3 2.332-.773 8.297 1.662 7.89 2.435-.406 2.809-4.978 2.992-7.176.115.052.235.094.357.124a13.657 13.657 0 016.708 7.907 17.37 17.37 0 01-3.907 1.253l-.033-.05zM169.741 89.282c-3.735-.5-7.494-.798-11.262-.896a21.492 21.492 0 00-5.502.598 15.626 15.626 0 00-8.561 8.787l-.54 2.688 6.042 2.033c1.897.53 3.85.831 5.818.896l.956-.058c10.955-.597 14.013-12.554 14.013-12.554l.3-1.195-1.264-.299zm-4.255 6.157c-1.854 4.663-9.758 5.56-10.057 5.56a20.165 20.165 0 01-5.145-.897c-.607-.298-2.161-.83-3.657-1.435a12.842 12.842 0 017.007-7.294c.058 2.274.54 6.638 2.751 7.053 2.211.415 2.094-5.202 1.92-7.65a76.4 76.4 0 019.333.597c-.299 1.195-1.554 2.332-2.152 4.066z" fill="#131840"/><path d="M74.423 106.558a19.71 19.71 0 009.757 10.513c3.05 1.792 5.818-2.929 2.751-4.663-3.066-1.734-5.817-4.149-6.998-7.285-1.18-3.137-6.765-1.792-5.51 1.435zM173.986 117.072c3.325-2.332 7.007-4.365 9.143-8.19 1.853-2.921-3.051-5.808-4.912-2.622-1.496 2.622-4.547 4.356-7.298 6.149-1.263.904-1.862 2.331-.897 3.767a2.863 2.863 0 003.939.896h.025z" fill="#ECA45B"/><path d="M116.689 145.437a1.353 1.353 0 01-1.263-1.195 1.105 1.105 0 01.343-.902 1.125 1.125 0 01.92-.294c10.954-.896 11.852-7.296 12.209-7.595a.929.929 0 01.093-.442.927.927 0 011.162-.454 1.357 1.357 0 011.264 1.195c0 .299 0 6.4 11.553 6.757a1.345 1.345 0 011.255 1.195 1.295 1.295 0 01-1.255 1.195c-5.818 0-9.758-1.793-12.218-4.665a2.266 2.266 0 01-.599-1.195c-2.21 2.573-5.818 5.81-13.464 6.4z" fill="#131840"/><path d="M141.417 121.495c.299.598-1.256 2.63-1.256 2.63s-4.247-.298-5.144.598c-1.264 1.195-1.862 6.754-1.496 6.754.365 0-2.161 2.928-3.325 2.928-.898 0-3.649-2.032-3.325-2.331.325-.299-.299-6.156-1.853-7.285-.906-.896-4.255.299-5.51-.298-.898-.299-1.862-2.929-1.862-2.929" fill="#CE4A28"/><path d="M130.162 135.545c-1.496 0-4.903-3.768-4.546-4.15 0-1.195-.598-5.261-1.263-6.157H122.2c-1.255 0-2.394.299-3.05-.299-1.255-.597-2.161-2.631-2.394-3.527a1.012 1.012 0 01.432-1.369l.166-.066a1.08 1.08 0 011.447.489l.049.108a4.088 4.088 0 001.496 2.332h1.854c1.496 0 2.759-.299 3.657.597 1.853 1.436 2.153 6.399 2.153 6.755v1.195a6.816 6.816 0 002.152 1.436 16.897 16.897 0 002.161-2.033c-.009-.985.091-1.967.299-2.929.599-3.229 1.497-4.15 1.854-4.357.898-.905 3.649-.905 5.51-.905.3-.597.599-.896.599-1.195 0-.597 0-.896.598-1.195.599-.298 1.255-.298 1.496.299.3.299.898 1.436-1.496 4.149-.299.299-.598.598-.897.299-1.862 0-3.957 0-4.256.299-.598.597-1.255 4.149-1.255 5.261v.598c-.357.829-2.817 4.066-4.613 4.365z" fill="#131840"/><path d="M63.468 83.484c5.144-4.664 8.203-14.887 9.458-23.069-.3 1.195 8.802 1.427 14.005-4.149 3.657-3.767 1.496-6.754-.599-11.418-5.817-11.957-15.5-21.342-24.934-30.13-2.402-2.331-4.912-8.19-9.143-6.754-3.324 1.195-3.05 10.787-2.393 13.75 3.549 25.25 13.606 61.77 13.606 61.77zM189.853 80.854c-4.912-4.664-10.057-14.348-10.955-22.24 0 1.204-8.801 1.204-13.714-4.356-3.324-3.767-1.255-6.397 1.256-10.522 6.408-10.787 16.465-19.31 26.164-27.5 2.759-2.032 5.51-4.978 9.458-3.227 3.325 1.435 2.402 7.891 1.862 10.522-4.987 28.097-14.071 57.323-14.071 57.323z" fill="#fff"/><path d="M190.455 42.838c-6.707 1.734-14.013 5.501-17.246 11.774-1.43-7.41 5.568-15.724 11.495-19.665 1.861-1.195 0-4.15-1.854-2.93-7.306 5.261-14.96 15.186-12.808 24.272a1.66 1.66 0 002.036 1.128l-.241.963c-.299 2.033 3.051 2.929 3.325.896 1.496-7.294 9.143-11.418 16.166-13.152 2.152-.656 1.197-3.884-.898-3.32l.025.034zM68.314 34.944c-1.853-1.195-3.325 1.435-1.853 2.93 4.845 3.41 10.713 10.34 11.494 16.738C74.78 48.338 67.657 44.57 60.71 42.836a1.68 1.68 0 00-2.066 1.166 1.675 1.675 0 001.168 2.062c7.007 1.793 14.612 5.859 16.166 13.154a1.743 1.743 0 001.889 1.18c.267-.036.522-.133.746-.284a1.664 1.664 0 002.493-.896c2.394-9.129-5.51-19.312-12.816-24.274h.025z" fill="#EC652A"/><path d="M85.08 39.909c-5.144-8.788-12.467-16.081-19.814-23.076l-7.904-8.788c-1.496-1.427-4.555-2.024-6.408-.299-3.948 3.527-3.05 11.12-2.394 15.766 1.255 9.086 3.05 17.873 5.153 26.603 2.394 11.41 5.145 22.47 8.195 33.59a.953.953 0 00.898.895c.3.299.906 0 1.504-.298 5.818-5.56 8.195-14.049 9.459-21.94 3.648.598 9.757-2.033 11.253-2.929 8.919-4.978 4.015-13.085.059-19.541v.017zM82.929 58.08a16.438 16.438 0 01-5.153 1.792c-.599 0-3.325 0-3.325.299-.299-1.195-2.393-1.436-2.75 0-1.264 6.995-3.06 14.877-7.606 20.437a552.666 552.666 0 01-12.816-57.918c-.599-3.228-.898-17.509 5.153-11.418l5.818 6.754c2.76 2.63 5.51 5.56 8.203 8.19a77.676 77.676 0 0114.255 19.849c.897 1.792 1.853 3.227 2.152 4.978 1.555 2.93-1.496 5.56-3.948 7.053l.017-.016zM198.713 10.975c-2.752.299-5.145 2.331-7.007 4.149-3.649 3.227-7.306 6.156-10.955 9.326a90.995 90.995 0 00-16.764 20.446c-3.648 6.156-.598 11.118 5.818 14.047 1.255.598 5.502 2.025 8.204 1.793a41.773 41.773 0 0010.954 21.034c.46.241.979.345 1.496.299.299 0 .599-.299.898-.896 3.324-10.522 6.109-21.333 8.802-32.154a275.807 275.807 0 005.51-27.2c.358-4.978 0-11.118-6.948-10.786l-.008-.058zm3.889 10.223c-1.255 13.151-5.145 26.602-8.561 39.513-1.496 5.858-3.05 11.708-4.912 17.267a40.228 40.228 0 01-9.142-19.84c-.299-1.435-2.394-1.194-2.751 0 .299-.896.598-.597-.599-.298a15.513 15.513 0 01-3.648-.598c-3.325-.896-8.204-3.227-8.569-6.994-.3-2.63 2.759-6.157 4.255-8.489a103.348 103.348 0 017.006-9.127c4.547-4.979 9.459-9.086 14.604-13.442 2.161-1.801 4.255-3.768 7.006-5.261 5.685-2.996 5.685 4.356 5.328 7.227l-.017.042z" fill="#131840"/><path d="M84.789 205.831c0 7.999.324 17.633 2.078 25.126h88.591c1.854-7.841 1.762-18.654 1.264-27.458-.773-13.533 10.913 3.112 11.253-6.389.341-9.501-16.323-40.02-16.323-40.02a164.01 164.01 0 00-18.934 9.036 47.163 47.163 0 01-22.349 5.856 47.164 47.164 0 01-22.45-5.458 122.145 122.145 0 00-17.188-7.385s-18.285 31.408-17.503 40.875c.78 9.468 11.644-7.742 11.56 5.817z" fill="#EEA65A"/><path d="M104.581 42.207s50.367 27.483 73.523 89.677" stroke="#0F112E" stroke-width="5" stroke-miterlimit="10"/><path d="M256.364 230.954c-9.974-27.384-48.639-91.387-55.205-97.677l-11.977 31.035s6.35 40.818 12.152 66.642h55.03z" fill="#EB532A" stroke="#0F112E" stroke-width="3" stroke-miterlimit="10"/><path d="M190.211 132.912l-.624-5.236a41.314 41.314 0 012.727-20.819c1.953-4.713 4.729-8.77 8.411-10.107a25.51 25.51 0 015.702-.888c8.12.664 7.339 10.157 7.339 10.157-1.962 11.459-5.868 11.99-7.988 18.786-.881 2.813.69 16.92-2.734 24.836-1.388 3.22-14.454 3.319-16.274 7.327" fill="#EB532A"/><path d="M190.211 132.912l-.624-5.236a41.314 41.314 0 012.727-20.819c1.953-4.713 4.729-8.77 8.411-10.107a25.51 25.51 0 015.702-.888c8.12.664 7.339 10.157 7.339 10.157-1.962 11.459-5.868 11.99-7.988 18.786-.881 2.813.69 16.92-2.734 24.836-1.388 3.22-14.454 3.319-16.274 7.327" stroke="#0F112E" stroke-width="3" stroke-miterlimit="10"/><path d="M203.045 147.064c-15.376.157-19.049-2.216-26.438-4.407-6.076-1.809-6.192 6.689-6.217 6.938-1.289 12.663 9.317 13.75 7.563 15.069-4.712 3.601-2.651 20.198 13.398 19.459l6.766 1.253 1.255.125c4.613-.108 16.199-2.888 16.797-19.775.299-8.298-.149-16.09-.149-16.09s5.228-6.29 6.524-9.601c3.807-9.734-7.314-16.281-15.102-15.99l-1.803.755s-13.049.722-16.249-.423c-10.689-3.809-20.097 8.713-13.107 17.641.174.216.357.44.548.656" fill="#EB532A"/><path d="M203.045 147.064c-15.376.157-19.049-2.216-26.438-4.407-6.076-1.809-6.192 6.689-6.217 6.938-1.289 12.663 9.317 13.75 7.563 15.069-4.712 3.601-2.651 20.198 13.398 19.459l6.766 1.253 1.255.125c4.613-.108 16.199-2.888 16.797-19.775.299-8.298-.149-16.09-.149-16.09s5.228-6.29 6.524-9.601c3.807-9.734-7.314-16.281-15.102-15.99l-1.803.755s-13.049.722-16.249-.423c-10.689-3.809-20.097 8.713-13.107 17.641.174.216.357.44.548.656" stroke="#0F112E" stroke-width="3" stroke-miterlimit="10" stroke-linecap="round"/><path d="M176.18 163.151c9.009 3.319 15.135 4.514 21.302 4.256l-21.302-4.256z" fill="#EB532A"/><path d="M176.18 163.151c9.009 3.319 15.135 4.514 21.302 4.256" stroke="#0F112E" stroke-width="3" stroke-miterlimit="10" stroke-linecap="round"/><path d="M213.584 167.243c7.812-4.041 8.311-11.004 6.973-15.02-.831-2.589-4.081-4.249-7.306-3.826" fill="#EB532A"/><path d="M213.584 167.243c7.812-4.041 8.311-11.004 6.973-15.02-.831-2.589-4.081-4.249-7.306-3.826" stroke="#0F112E" stroke-width="3" stroke-miterlimit="10" stroke-linecap="round"/><path d="M2 231h269" stroke="#231F20" stroke-width="3" stroke-linecap="round" stroke-linejoin="round"/><path d="M169.482 93.283s-.765 9.958-11.478 10.937c-10.714.979-15.235-1.809-16.914-5.916a39.565 39.565 0 01-1.663-6.324 7.194 7.194 0 013.103-7.384 7.225 7.225 0 012.607-1.063c.211-.039.424-.07.64-.091l12.601-1.295a9.728 9.728 0 016.846 1.903 9.7 9.7 0 013.717 6.047l.541 3.186z" fill="#0F112E" stroke="#0F112E" stroke-width="5" stroke-miterlimit="10"/><path d="M105.999 119.886c-1.255.955-9.192 0-8.918 1.61.432 2.589-.948 4.099-2.493 5.477-1.846 1.659-1.33 6.405-1.33 6.405l.715-.722a3.644 3.644 0 012.892-1.111s-1.388 5.866-1.147 7.749c0 0 4.355-4.447 6.375-3.451 0 0-2.128 1.659-1.729 3.908.399 2.248 2.784-.83 5.619-.116 2.834.713-1.812-9.468-1.812-9.468l1.828-10.281zM155.785 119.82c1.005 1.37 7.663 6.456 6.815 7.975-1.338 2.382-.956 2.033-.183 4.091a8.501 8.501 0 01.521 4.546 8.52 8.52 0 01-1.909 4.159 5.747 5.747 0 00-3.391-2.215s0 3.319-.897 5.037c0 0-1.131-3.195-3.616-2.913 0 0 .889 5.493-.274 3.411-.956-1.735-2.76-1.395-6.001-1.66-3.242-.266 3.524-7.693 3.524-7.693l5.411-14.738z" fill="#ECA45B"/><path d="M67.55 189.009l-.29 2.099c-.615 9.402 5.568 25.874 6.075 35.267.532 9.958-6.566 14.489-13.298 21.003 0 0-20.563 10.663-29.356-8.921l-2.144-5.808a22.126 22.126 0 01-.831-12.672c2.568-11.21 7.255-33.607 4.338-36.653-2.917-3.045-12.051-8.132-8.311-21.716 1.828-6.638 4.155-12.762 4.155-12.762s-2.593-6.307-2.8-9.261c-.607-8.697 6.848-12.68 12.965-10.514 6.117 2.166 13.756 9.684 19.898 9.667 6.142-.016 12.708-5.136 17.213-4.257" fill="#EB532A"/><path d="M67.55 189.009l-.29 2.099c-.615 9.402 5.568 25.874 6.075 35.267.532 9.958-6.566 14.489-13.298 21.003 0 0-20.563 10.663-29.356-8.921l-2.144-5.808a22.126 22.126 0 01-.831-12.672c2.568-11.21 7.255-33.607 4.338-36.653-2.917-3.045-12.051-8.132-8.311-21.716 1.828-6.638 4.155-12.762 4.155-12.762s-2.593-6.307-2.8-9.261c-.607-8.697 6.848-12.68 12.965-10.514 6.117 2.166 13.756 9.684 19.898 9.667 6.142-.016 12.708-5.136 17.213-4.257" stroke="#0F112E" stroke-width="3" stroke-miterlimit="10"/><path d="M24.914 165.773c-4.488-5.477-2.85-10.663-.83-13.924a4.681 4.681 0 016.184-1.66" fill="#EB532A"/><path d="M24.914 165.773c-4.488-5.477-2.85-10.663-.83-13.924a4.681 4.681 0 016.184-1.66v0" stroke="#0F112E" stroke-width="3" stroke-miterlimit="10" stroke-linecap="round"/><path d="M38.885 132.581c1.13.897 9.077 6.183 7.364 12.972-.316 1.261-2.219 4.257-7.738 5.958-6.649 2.05-11.162-3.734-11.162-3.734" stroke="#0F112E" stroke-width="3" stroke-miterlimit="10" stroke-linecap="round"/><path d="M66.963 142.157l7.771-13.517a12.398 12.398 0 016.215-5.851 12.426 12.426 0 018.53-.455l.216.066c7.156 2.157 5.12 9.401 5.12 9.401-.358 6.506-10.265 11.618-13.041 17.426-1.139 2.407-1.03 14.322-5.56 20.662-1.837 2.572-3.757 3.186-3.508 7.169.648 10.448-5.419 23.957-26.289 10.622" fill="#EB532A"/><path d="M66.963 142.157l7.771-13.517a12.398 12.398 0 016.215-5.851 12.426 12.426 0 018.53-.455l.216.066c7.156 2.157 5.12 9.401 5.12 9.401-.358 6.506-10.265 11.618-13.041 17.426-1.139 2.407-1.03 14.322-5.56 20.662-1.837 2.572-3.757 3.186-3.508 7.169.648 10.448-5.419 23.957-26.289 10.622" stroke="#0F112E" stroke-width="3" stroke-miterlimit="10" stroke-linecap="round"/><path d="M39.725 177.309c-1.904-1.61 6.649-20.987 6.99-22.863.34-1.875 2.086-4.016 2.792-4.912.707-.897 4.156-1.66 6.99 1.02 6.458 6.191 14.196-1.07 15.942 4.838.29.988-.117 5.602-1.663 10.863-.548 1.917-1.662 2.971-2.493 4.913-.607 1.386-.898 3.684-1.662 4.979-4.88 7.884-13.299 12.63-26.896 1.162z" fill="#EEA65A"/><path d="M32.004 183.365l12.467 3.825c9.01 1.9 22.35-8.057 13.024-16.231-2.144-1.884 10.298 1.46 9.184-12.796 0-.207-.498-4.978-5.992-5.095-6.65-.141-7.705 1.66-14.711-.638" fill="#EB532A"/><path d="M32.004 183.365l12.467 3.825c9.01 1.9 22.35-8.057 13.024-16.231-2.144-1.884 10.298 1.46 9.184-12.796 0-.207-.498-4.978-5.992-5.095-6.65-.141-7.705 1.66-14.711-.638" stroke="#0F112E" stroke-width="3" stroke-miterlimit="10" stroke-linecap="round"/><path d="M74.841 142.39c-2.186-1.212-1.446-2.979-1.114-4.855.333-1.875 2.087-4.008 2.793-4.904.707-.896 5.885-5.236 8.52-2.381 1.903 2.066.282 3.966-1.131 7.302-1.338 3.178-4.854 7.178-9.068 4.838z" fill="#EEA65A"/><path d="M57.677 171.341s-23.339.349-32.988-5.35l32.988 5.35z" fill="#EB532A"/><path d="M57.677 171.341s-23.339.349-32.988-5.35" stroke="#0F112E" stroke-width="3" stroke-miterlimit="10"/><path d="M150.158 130.242a1.627 1.627 0 100-3.253 1.628 1.628 0 100 3.253zM157.432 136.732a1.628 1.628 0 100-3.254 1.628 1.628 0 100 3.254zM138.848 137.172c.899 0 1.629-.728 1.629-1.626 0-.898-.73-1.626-1.629-1.626-.9 0-1.629.728-1.629 1.626 0 .898.729 1.626 1.629 1.626zM104.581 124.722c.899 0 1.629-.728 1.629-1.626 0-.898-.73-1.626-1.629-1.626-.9 0-1.63.728-1.63 1.626 0 .898.73 1.626 1.63 1.626zM114.188 129.819a1.628 1.628 0 100-3.254c-.9 0-1.63.729-1.63 1.627 0 .899.73 1.627 1.63 1.627zM157.432 129.347a1.628 1.628 0 10.002-3.256 1.628 1.628 0 00-.002 3.256zM146.628 135.733a1.628 1.628 0 100-3.254 1.628 1.628 0 100 3.254zM108.543 139.791c.899 0 1.629-.728 1.629-1.626 0-.898-.73-1.626-1.629-1.626-.9 0-1.63.728-1.63 1.626 0 .898.73 1.626 1.63 1.626zM105.293 133.073a1.628 1.628 0 100-3.254 1.628 1.628 0 100 3.254zM116.091 137.172c.9 0 1.629-.728 1.629-1.626 0-.898-.729-1.626-1.629-1.626s-1.629.728-1.629 1.626c0 .898.729 1.626 1.629 1.626z" fill="#0F112E"/><path d="M200.308 115.511c-2.976-.763-5.187-9.194-2.984-12.447 2.203-3.252 4.654 1.743 5.494 2.863.249.324 1.08-.888 1.554-1.045 3.075-1.046 6.408 0 3.873 4.049-2.252 3.609-5.643 7.161-7.937 6.58z" fill="#EEA65A"/><path d="M127.186 269.329a89.266 89.266 0 01-30.703-5.427l-.224-.075-6.159-4.796c-9.018-7.817-6.059-20.463 8.735-37.615 7.797-9.037 19.79-11.617 23.447-12.273l1.97-8.854c-2.435-5.61-2.884-10.19-1.322-13.625a8.314 8.314 0 014.987-4.564c.224-.067.457-.1.69-.1 1.829 0 2.743 1.892 3.798 4.091.649 1.336 1.447 2.996 2.269 3.626.213.158.476.234.74.216a9.994 9.994 0 002.494-.573 17.02 17.02 0 015.136-.979c.695.002 1.388.072 2.07.208a4.922 4.922 0 013.457 2.414c.989 1.768.831 4.033.54 5.676a8.411 8.411 0 015.27 3.436c1.014 1.444 1.355 2.871.939 4.024-.249.714-1.014 2.838-12.974 2.979l-.989 4.738c2.169 1.917 8.918 8.357 16.107 20.215 6.234 10.264 4.896 21.184 3.541 26.777a8.36 8.36 0 01-2.088 3.825 8.383 8.383 0 01-3.73 2.258l-3.881 1.087a89.833 89.833 0 01-24.12 3.311z" fill="#D49177"/><path d="M128.61 183.148c1.662 0 2.842 5.651 5.153 7.41.477.36 1.064.544 1.662.523 1.978 0 4.53-1.544 7.655-1.544a9.382 9.382 0 011.77.166c4.987.996 2.303 8.248 2.303 8.248a3.705 3.705 0 011.155-.182c3.142 0 6.267 3.784 5.635 5.551-.715 1.984-12.783 1.984-12.783 1.984l-1.421 6.812s7.954 6.382 16.473 20.414c5.926 9.758 4.696 20.139 3.325 25.649a6.812 6.812 0 01-4.796 4.979l-3.882 1.087a88.086 88.086 0 01-53.908-2.082l-5.967-4.681c-10.805-9.36.141-25.243 8.951-35.449 8.81-10.207 23.547-11.916 23.547-11.916l2.327-10.323c-5.685-12.622.706-16.024 2.56-16.597a.811.811 0 01.241 0v-.049zm0-2.963c-.384 0-.765.059-1.131.174a9.84 9.84 0 00-5.942 5.378c-1.663 3.742-1.322 8.58 1.122 14.389l-1.663 7.418c-4.671.913-15.85 3.909-23.33 12.58-6.134 7.112-10.173 13.277-12.35 18.928-4.206 10.854-.308 17.285 3.706 20.746l.058.049h.059l5.967 4.681.374.298.45.166a91.212 91.212 0 0055.752 2.149l3.89-1.087a9.852 9.852 0 006.915-7.178c1.405-5.808 2.801-17.177-3.715-27.906-6.649-10.987-12.999-17.426-15.742-19.966l.574-2.746c1.113 0 2.493-.1 3.906-.208 5.161-.415 8.311-1.153 9.251-3.726.581-1.659.182-3.543-1.131-5.393a10.536 10.536 0 00-4.812-3.726 9.192 9.192 0 00-.914-5.303 6.387 6.387 0 00-4.48-3.153 11.697 11.697 0 00-2.361-.232 18.64 18.64 0 00-5.577 1.037c-.653.232-1.326.401-2.011.506a14.191 14.191 0 01-1.712-2.987c-1.122-2.315-2.386-4.979-5.162-4.979l.009.091z" fill="#0F112E"/><path d="M140.301 204.078c-3.865-1.295-11.221-3.685-15.285-4.539 0 0-3.075 1.253-2.286 3.004.79 1.75 16.623 7.675 18.418 7.086a2.157 2.157 0 001.172-1.336 3.224 3.224 0 00-1.87-4.149l-.149-.066z" fill="#F9D663" stroke="#0F112E" stroke-width="1.859" stroke-miterlimit="10"/><path d="M141.931 208.441s9.142 3.95 10.688 6.323c1.546 2.373-1.321 4.39-3.324 4.738-2.003.349-8.029-6.057-8.029-6.057l.665-5.004z" fill="#F9D663" stroke="#0F112E" stroke-width="1.859" stroke-miterlimit="10"/><path d="M135.666 212.948l-.067 10.25c0 .722 1.662 2.738 3.325 2.689 1.662-.05 3.383-2.191 3.324-2.988l-2.086-10.482" fill="#F9D663"/><path d="M135.666 212.948l-.067 10.25c0 .722 1.662 2.738 3.325 2.689 1.662-.05 3.383-2.191 3.324-2.988l-2.086-10.482" stroke="#0F112E" stroke-width="1.859" stroke-miterlimit="10"/><path d="M140.776 209.149a57.327 57.327 0 01-14.545-4.422 2.403 2.403 0 00-3.2 1.128v.05a3.249 3.249 0 00-.274 2.489c.831 1.75 15.252 5.533 17.022 4.977a2.151 2.151 0 001.28-1.659c.241-1.128.873-2.406-.283-2.563z" fill="#F9D663" stroke="#0F112E" stroke-width="1.859" stroke-miterlimit="10"/><path d="M126.71 224.791l-6.292 29.815M131.365 231.752s-9.193-8.564-12.642-1.369c0 0-3.557 5.286 5.868 8.954 3.167 1.228 6.566 4.083 5.062 7.12-1.388 2.796-4.921 7.468-14.836.224" stroke="#0F112E" stroke-width="3" stroke-linecap="round" stroke-linejoin="round"/><path d="M155.058 245.53c2.889-1.869 3.493-6.063 1.349-9.367-2.144-3.304-6.225-4.467-9.114-2.598-2.889 1.869-3.493 6.063-1.349 9.367 2.144 3.304 6.224 4.467 9.114 2.598z" fill="#DFAC97"/><path d="M99.957 222.04c-8.81 10.206-19.74 26.089-8.95 35.449l5.967 4.68a88.237 88.237 0 0053.908 2.083l3.324-.913a7.888 7.888 0 003.598-2.169 7.86 7.86 0 001.971-3.706c.475-2.129.772-4.294.889-6.472-4.546 3.833-17.038 11.227-40.909 4.58-24.194-6.73-10.804-32.503-3.623-43.689-4.987 1.634-11.479 4.663-16.175 10.157z" fill="#BB8774"/><path d="M105.484 254.406s.748 8.206 9.384 13.192" stroke="#0F112E" stroke-width="3" stroke-linecap="round" stroke-linejoin="round"/><path d="M173.682 273c9.603 0 17.387-3.244 17.387-7.245 0-4.001-7.784-7.244-17.387-7.244-9.603 0-17.388 3.243-17.388 7.244 0 4.001 7.785 7.245 17.388 7.245z" fill="#353738" stroke="#0F112E" stroke-width="5" stroke-miterlimit="10"/><path opacity=".72" d="M159.508 198.41v13.833c0 6.855 3.873 13.543 7.838 19.144h13.041c.291 0 7.397-12.447 7.397-19.152v-12.439l-28.276-1.386z" fill="#B5BBBC"/><path opacity=".72" d="M187.817 264.28v-13.792c0-6.854-3.433-13.542-7.397-19.143l-.831.249a18.679 18.679 0 01-11.769-.266c-4.405 4.066-8.312 12.447-8.312 19.152v12.447l28.309 1.353z" fill="#B5BBBC"/><path d="M173.872 232.732v12.005" stroke="#F4BB56" stroke-width="2.56" stroke-miterlimit="10"/><path d="M187.817 264.28v-13.792c0-6.854-3.433-13.542-7.397-19.143l-.831.249a18.679 18.679 0 01-11.769-.266c-4.405 4.066-8.312 12.447-8.312 19.152v12.447l28.309 1.353z" stroke="#0F112E" stroke-width="3" stroke-miterlimit="10"/><path d="M173.681 269.6c7.809 0 14.138-2.381 14.138-5.319 0-2.937-6.329-5.319-14.138-5.319-7.808 0-14.137 2.382-14.137 5.319 0 2.938 6.329 5.319 14.137 5.319z" fill="#BBBDBF" stroke="#0F112E" stroke-width="1.859" stroke-miterlimit="10"/><path d="M187.279 245.692l-27.245.406a21.543 21.543 0 00-.49 4.398v13.784c0 2.937 6.325 5.319 14.129 5.319 7.805 0 14.13-2.382 14.13-5.319v-13.792a22.809 22.809 0 00-.524-4.796z" fill="#C6964F"/><path d="M186.935 244.388c-5.311-2.257-22.657-3.394-26.422-.365a27.604 27.604 0 00-.657 2.839c.05 0 9.076 4.864 17.662 2.988 6.043-1.311 8.844-1.17 10.09-2.1a26.012 26.012 0 00-.673-3.362z" fill="#F4BB56"/><path d="M180.42 231.328h-12.6c-4.405 4.066-8.312 12.448-8.312 19.153v13.783c0 2.938 6.325 5.32 14.13 5.32 7.804 0 14.129-2.382 14.129-5.32v-13.775c.05-6.855-3.383-13.543-7.347-19.161z" stroke="#0F112E" stroke-width="3" stroke-miterlimit="10"/><path d="M161.038 219.96a50.177 50.177 0 006.342 11.37l6.62.67 6.421-.67c.199 0 3.482-5.652 5.61-11.387l-24.993.017z" fill="#C6964F"/><path d="M163.459 222.398s12.774 3.659 21.169-.755c8.394-4.413-30.777-5.06-21.169.755z" fill="#F4BB56"/><path d="M159.733 198.41v13.833c0 6.855 3.881 13.543 7.846 19.144h13.032c.299 0 7.397-12.447 7.397-19.152v-12.439l-28.275-1.386z" stroke="#0F112E" stroke-width="3" stroke-miterlimit="10"/><path d="M173.682 204.947c9.603 0 17.387-2.125 17.387-4.747 0-2.621-7.784-4.746-17.387-4.746-9.603 0-17.388 2.125-17.388 4.746 0 2.622 7.785 4.747 17.388 4.747z" fill="#0F112E" stroke="#0F112E" stroke-width="4.096" stroke-miterlimit="10"/><path d="M174.023 231.15c3.424 0 6.2-.929 6.2-2.075 0-1.146-2.776-2.075-6.2-2.075-3.425 0-6.201.929-6.201 2.075 0 1.146 2.776 2.075 6.201 2.075z" fill="#C6964F"/></svg>
